# This file uses inches as units for non-parametric coordinates.

mtllib Can.mtl
g default
v -7.250000 0.115021 3.250000
v 7.250000 0.115021 3.250000
v -7.250000 15.001835 3.250000
v 7.250000 18.673791 3.250000
v -7.250000 15.001835 -3.250000
v 7.250000 18.673791 -3.250000
v -7.250000 0.115021 -3.250000
v 7.250000 0.115021 -3.250000
v -3.448830 17.430641 3.250000
v -3.448830 17.430641 -3.250000
v -3.448830 0.115021 -3.250000
v -3.448830 0.115021 3.250000
v 0.982376 17.516998 3.250000
v 0.982376 17.516998 -3.250000
v 0.982376 0.115021 -3.250000
v 0.982376 0.115021 3.250000
v 3.955896 19.064956 3.250000
v 3.955896 19.064956 -3.250000
v 3.955896 0.115021 -3.250000
v 3.955896 0.115021 3.250000
v 4.977077 19.878628 3.250000
v 4.977077 19.878628 -3.250000
v 4.977077 0.115021 -3.250000
v 4.977077 0.115021 3.250000
v 5.772930 19.878628 3.250000
v 5.772930 19.878628 -3.250000
v 5.772930 0.115021 -3.250000
v 5.772930 0.115021 3.250000
v -6.937302 15.821798 3.250000
v -6.937302 15.821798 -3.250000
v -6.937302 0.115021 -3.250000
v -6.937302 0.115021 3.250000
v 1.946067 17.620155 3.250000
v 1.946067 17.620155 -3.250000
v 1.946067 0.115021 -3.250000
v 1.946067 0.115021 3.250000
v 2.922100 18.057380 3.250000
v 2.922100 18.057380 -3.250000
v 2.922100 0.115021 -3.250000
v 2.922100 0.115021 3.250000
v 6.518363 19.736577 3.250000
v 6.518363 19.736577 -3.250000
v 6.518363 0.115021 -3.250000
v 6.518363 0.115021 3.250000
v 6.930505 19.374569 3.250000
v 6.930505 19.374569 -3.250000
v 6.930505 0.115021 -3.250000
v 6.930505 0.115021 3.250000
v 6.230792 19.836025 3.250000
v 6.230792 19.836025 -3.250000
v 6.230792 0.115021 -3.250000
v 6.230792 0.115021 3.250000
v -7.250000 15.001835 0.000000
v -7.250000 0.115021 0.000000
v -6.937302 0.115021 0.000000
v -3.448830 0.115021 0.000000
v 0.982376 0.115021 0.000000
v 1.946067 0.115021 0.000000
v 2.922100 0.115021 0.000000
v 3.955896 0.115021 0.000000
v 4.977077 0.115021 0.000000
v 5.772930 0.115021 0.000000
v 6.230792 0.115021 0.000000
v 6.518363 0.115021 0.000000
v 6.930505 0.115021 0.000000
v 7.250000 0.115021 0.000000
v 7.250000 18.673791 0.000000
v 6.930505 19.374569 0.000000
v 6.518363 19.736577 0.000000
v 6.230792 19.836025 0.000000
v 5.772930 19.878628 0.000000
v 4.977077 19.878628 0.000000
v 3.955896 19.064956 0.000000
v 2.922100 18.057380 0.000000
v 1.946067 17.620155 0.000000
v 0.982376 17.516998 0.000000
v -3.448830 17.430641 0.000000
v -6.937302 15.821798 0.000000
vt 0.375000 0.000000
vt 0.625000 0.000000
vt 0.375000 0.250000
vt 0.625000 0.250000
vt 0.375000 0.500000
vt 0.625000 0.500000
vt 0.375000 0.750000
vt 0.625000 0.750000
vt 0.375000 1.000000
vt 0.625000 1.000000
vt 0.875000 0.000000
vt 0.875000 0.250000
vt 0.125000 0.000000
vt 0.125000 0.250000
vt 0.440537 0.250000
vt 0.440537 0.500000
vt 0.440537 0.750000
vt 0.440537 0.000000
vt 0.440537 1.000000
vt 0.525769 0.250000
vt 0.525769 0.500000
vt 0.525769 0.750000
vt 0.525769 0.000000
vt 0.525769 1.000000
vt 0.568205 0.250000
vt 0.568205 0.500000
vt 0.568205 0.750000
vt 0.568205 0.000000
vt 0.568205 1.000000
vt 0.585812 0.250000
vt 0.585812 0.500000
vt 0.585812 0.750000
vt 0.585812 0.000000
vt 0.585812 1.000000
vt 0.599533 0.250000
vt 0.599533 0.500000
vt 0.599533 0.750000
vt 0.599533 0.000000
vt 0.599533 1.000000
vt 0.380391 0.250000
vt 0.380391 0.500000
vt 0.380391 0.750000
vt 0.380391 0.000000
vt 0.380391 1.000000
vt 0.539522 0.250000
vt 0.539522 0.500000
vt 0.539522 0.750000
vt 0.539522 0.000000
vt 0.539522 1.000000
vt 0.553451 0.250000
vt 0.553451 0.500000
vt 0.553451 0.750000
vt 0.553451 0.000000
vt 0.553451 1.000000
vt 0.612386 0.250000
vt 0.612386 0.500000
vt 0.612386 0.750000
vt 0.612386 0.000000
vt 0.612386 1.000000
vt 0.619491 0.250000
vt 0.619491 0.500000
vt 0.619491 0.750000
vt 0.619491 0.000000
vt 0.619491 1.000000
vt 0.607427 0.250000
vt 0.607427 0.500000
vt 0.607427 0.750000
vt 0.607427 0.000000
vt 0.607427 1.000000
vt 0.250000 0.250000
vt 0.375000 0.375000
vt 0.250000 0.000000
vt 0.375000 0.875000
vt 0.380391 0.875000
vt 0.440537 0.875000
vt 0.525769 0.875000
vt 0.539522 0.875000
vt 0.553451 0.875000
vt 0.568205 0.875000
vt 0.585812 0.875000
vt 0.599533 0.875000
vt 0.607427 0.875000
vt 0.612386 0.875000
vt 0.619491 0.875000
vt 0.625000 0.875000
vt 0.750000 0.000000
vt 0.625000 0.375000
vt 0.750000 0.250000
vt 0.619491 0.375000
vt 0.612386 0.375000
vt 0.607427 0.375000
vt 0.599533 0.375000
vt 0.585812 0.375000
vt 0.568205 0.375000
vt 0.553451 0.375000
vt 0.539522 0.375000
vt 0.525769 0.375000
vt 0.440537 0.375000
vt 0.380391 0.375000
vn -0.000001 0.000000 1.000000
vn -0.000000 0.000000 1.000000
vn -0.000000 0.000000 1.000000
vn -0.000001 0.000000 1.000000
vn -0.934362 0.356324 0.000000
vn -0.538433 0.842668 0.000000
vn -0.538433 0.842668 0.000000
vn -0.934362 0.356324 0.000000
vn -0.000001 0.000000 -1.000000
vn -0.000000 0.000000 -1.000000
vn -0.000000 0.000000 -1.000000
vn -0.000001 0.000000 -1.000000
vn 0.000000 -1.000000 0.000000
vn 0.000000 -1.000000 0.000000
vn 0.000000 -1.000000 0.000000
vn 0.000000 -1.000000 0.000000
vn 1.000000 0.000000 0.000000
vn 1.000000 0.000000 0.000000
vn 1.000000 0.000000 0.000000
vn 1.000000 0.000000 0.000000
vn -1.000000 0.000000 0.000000
vn -1.000000 0.000000 0.000000
vn -1.000000 0.000000 0.000000
vn -1.000000 0.000000 0.000000
vn -0.209308 0.977850 0.000000
vn -0.035107 0.999384 0.000000
vn -0.035107 0.999384 0.000000
vn -0.209308 0.977850 0.000000
vn 0.000000 0.000000 -1.000000
vn 0.000000 0.000000 -1.000000
vn 0.000000 0.000000 -1.000000
vn 0.000000 0.000000 -1.000000
vn 0.000000 -1.000000 0.000000
vn 0.000000 -1.000000 0.000000
vn 0.000000 -1.000000 0.000000
vn 0.000000 -1.000000 0.000000
vn 0.000000 0.000000 1.000000
vn 0.000000 0.000000 1.000000
vn 0.000000 0.000000 1.000000
vn -0.000000 0.000000 1.000000
vn -0.268368 0.963317 0.000000
vn -0.268368 0.963317 0.000000
vn 0.000000 0.000000 -1.000000
vn 0.000000 0.000000 -1.000000
vn 0.000000 -1.000000 0.000000
vn 0.000000 -1.000000 0.000000
vn 0.000000 0.000000 1.000000
vn 0.000000 0.000000 1.000000
vn -0.663265 0.748385 0.000000
vn -0.408696 0.912671 0.000000
vn -0.408696 0.912671 0.000000
vn -0.663265 0.748385 0.000000
vn 0.000000 0.000000 -1.000000
vn 0.000000 0.000000 -1.000000
vn 0.000000 0.000000 -1.000000
vn 0.000000 0.000000 -1.000000
vn 0.000000 -1.000000 0.000000
vn 0.000000 -1.000000 0.000000
vn 0.000000 -1.000000 0.000000
vn 0.000000 -1.000000 0.000000
vn 0.000000 0.000000 1.000000
vn 0.000000 0.000000 1.000000
vn 0.000000 0.000000 1.000000
vn 0.000000 0.000000 1.000000
vn 0.033962 0.999423 0.000000
vn 0.033962 0.999423 0.000000
vn 0.000000 0.000000 -1.000000
vn 0.000000 0.000000 -1.000000
vn 0.000000 -1.000000 0.000000
vn 0.000000 -1.000000 0.000000
vn -0.000000 0.000000 1.000000
vn -0.000000 0.000000 1.000000
vn 0.187193 0.982323 0.000000
vn 0.187193 0.982323 0.000000
vn 0.000000 0.000000 -1.000000
vn 0.000000 0.000000 -1.000000
vn 0.000000 -1.000000 0.000000
vn 0.000000 -1.000000 0.000000
vn -0.000000 0.000000 1.000000
vn -0.000000 0.000000 1.000000
vn -0.583699 0.811970 0.000000
vn -0.583699 0.811970 0.000000
vn 0.000000 0.000000 -1.000000
vn 0.000000 0.000000 -1.000000
vn 0.000000 -1.000000 0.000000
vn 0.000000 -1.000000 0.000000
vn 0.000000 0.000000 1.000000
vn 0.000000 0.000000 1.000000
vn 0.550548 0.834804 0.000000
vn 0.823690 0.567040 0.000000
vn 0.823690 0.567040 0.000000
vn 0.550548 0.834804 0.000000
vn 0.000000 0.000000 -1.000000
vn 0.000000 0.000000 -1.000000
vn 0.000000 0.000000 -1.000000
vn 0.000000 0.000000 -1.000000
vn 0.000000 -1.000000 0.000000
vn 0.000000 -1.000000 0.000000
vn 0.000000 -1.000000 0.000000
vn 0.000000 -1.000000 0.000000
vn 0.000000 0.000000 1.000000
vn 0.000000 0.000000 1.000000
vn 0.000000 0.000000 1.000000
vn 0.000000 0.000000 1.000000
vn 0.909896 0.414836 0.000000
vn 0.909896 0.414836 0.000000
vn 0.000000 0.000000 -1.000000
vn 0.000000 0.000000 -1.000000
vn 0.000000 -1.000000 0.000000
vn 0.000000 -1.000000 0.000000
vn 0.000000 0.000000 1.000000
vn 0.000000 0.000000 1.000000
vn -1.000000 0.000000 0.000000
vn -1.000000 0.000000 0.000000
vn 0.000000 -1.000000 0.000000
vn 0.000000 -1.000000 0.000000
vn 0.000000 -1.000000 0.000000
vn 0.000000 -1.000000 0.000000
vn 0.000000 -1.000000 0.000000
vn 0.000000 -1.000000 0.000000
vn 0.000000 -1.000000 0.000000
vn 0.000000 -1.000000 0.000000
vn 0.000000 -1.000000 0.000000
vn 0.000000 -1.000000 0.000000
vn 0.000000 -1.000000 0.000000
vn 0.000000 -1.000000 0.000000
vn 0.000000 -1.000000 0.000000
vn 1.000000 0.000000 0.000000
vn 1.000000 0.000000 0.000000
vn 0.909896 0.414836 0.000000
vn 0.823690 0.567040 0.000000
vn 0.550548 0.834804 0.000000
vn 0.187193 0.982323 0.000000
vn 0.033962 0.999423 0.000000
vn -0.408696 0.912671 0.000000
vn -0.663265 0.748385 0.000000
vn -0.583699 0.811970 0.000000
vn -0.268368 0.963317 0.000000
vn -0.035107 0.999384 0.000000
vn -0.209308 0.977850 0.000000
vn -0.538433 0.842668 0.000000
vn -0.934362 0.356324 0.000000
s 1
g WhiteBox
usemtl initialShadingGroup
f 1/1/1 32/43/2 29/40/3 3/3/4
s 2
f 3/3/5 29/40/6 78/99/7 53/71/8
s 3
f 5/5/9 30/41/10 31/42/11 7/7/12
s 4
f 54/73/13 55/74/14 32/44/15 1/9/16
s 5
f 2/2/17 66/86/18 67/88/19 4/4/20
s 6
f 54/72/21 1/1/22 3/3/23 53/70/24
s 2
f 9/15/25 13/20/26 76/97/27 77/98/28
s 3
f 11/17/29 10/16/30 14/21/31 15/22/32
s 4
f 12/19/33 56/75/34 57/76/35 16/24/36
s 1
f 9/15/37 12/18/38 16/23/39 13/20/40
s 2
f 13/20/26 33/45/41 75/96/42 76/97/27
s 3
f 15/22/32 14/21/31 34/46/43 35/47/44
s 4
f 16/24/36 57/76/35 58/77/45 36/49/46
s 1
f 13/20/40 16/23/39 36/48/47 33/45/48
s 2
f 17/25/49 21/30/50 72/93/51 73/94/52
s 3
f 19/27/53 18/26/54 22/31/55 23/32/56
s 4
f 20/29/57 60/79/58 61/80/59 24/34/60
s 1
f 17/25/61 20/28/62 24/33/63 21/30/64
s 2
f 21/30/50 25/35/65 71/92/66 72/93/51
s 3
f 23/32/56 22/31/55 26/36/67 27/37/68
s 4
f 24/34/60 61/80/59 62/81/69 28/39/70
s 1
f 21/30/64 24/33/63 28/38/71 25/35/72
s 2
f 25/35/65 49/65/73 70/91/74 71/92/66
s 3
f 27/37/68 26/36/67 50/66/75 51/67/76
s 4
f 28/39/70 62/81/69 63/82/77 52/69/78
s 1
f 25/35/72 28/38/71 52/68/79 49/65/80
s 2
f 29/40/6 9/15/25 77/98/28 78/99/7
s 3
f 31/42/11 30/41/10 10/16/30 11/17/29
s 4
f 32/44/15 55/74/14 56/75/34 12/19/33
s 1
f 29/40/3 32/43/2 12/18/38 9/15/37
s 2
f 33/45/41 37/50/81 74/95/82 75/96/42
s 3
f 35/47/44 34/46/43 38/51/83 39/52/84
s 4
f 36/49/46 58/77/45 59/78/85 40/54/86
s 1
f 33/45/48 36/48/47 40/53/87 37/50/88
s 2
f 37/50/81 17/25/49 73/94/52 74/95/82
s 3
f 39/52/84 38/51/83 18/26/54 19/27/53
s 4
f 40/54/86 59/78/85 60/79/58 20/29/57
s 1
f 37/50/88 40/53/87 20/28/62 17/25/61
s 2
f 41/55/89 45/60/90 68/89/91 69/90/92
s 3
f 43/57/93 42/56/94 46/61/95 47/62/96
s 4
f 44/59/97 64/83/98 65/84/99 48/64/100
s 1
f 41/55/101 44/58/102 48/63/103 45/60/104
s 2
f 45/60/90 4/4/105 67/87/106 68/89/91
s 3
f 47/62/96 46/61/95 6/6/107 8/8/108
s 4
f 48/64/100 65/84/99 66/85/109 2/10/110
s 1
f 45/60/104 48/63/103 2/2/111 4/4/112
s 2
f 49/65/73 41/55/89 69/90/92 70/91/74
s 3
f 51/67/76 50/66/75 42/56/94 43/57/93
s 4
f 52/69/78 63/82/77 64/83/98 44/59/97
s 1
f 49/65/80 52/68/79 44/58/102 41/55/101
s 6
f 7/13/113 54/72/21 53/70/24 5/14/114
s 4
f 7/7/115 31/42/116 55/74/14 54/73/13
f 56/75/34 55/74/14 31/42/116 11/17/117
f 57/76/35 56/75/34 11/17/117 15/22/118
f 58/77/45 57/76/35 15/22/118 35/47/119
f 59/78/85 58/77/45 35/47/119 39/52/120
f 60/79/58 59/78/85 39/52/120 19/27/121
f 61/80/59 60/79/58 19/27/121 23/32/122
f 62/81/69 61/80/59 23/32/122 27/37/123
f 63/82/77 62/81/69 27/37/123 51/67/124
f 64/83/98 63/82/77 51/67/124 43/57/125
f 65/84/99 64/83/98 43/57/125 47/62/126
f 66/85/109 65/84/99 47/62/126 8/8/127
s 5
f 67/88/19 66/86/18 8/11/128 6/12/129
s 2
f 68/89/91 67/87/106 6/6/130 46/61/131
f 69/90/92 68/89/91 46/61/131 42/56/132
f 70/91/74 69/90/92 42/56/132 50/66/133
f 71/92/66 70/91/74 50/66/133 26/36/134
f 72/93/51 71/92/66 26/36/134 22/31/135
f 73/94/52 72/93/51 22/31/135 18/26/136
f 74/95/82 73/94/52 18/26/136 38/51/137
f 75/96/42 74/95/82 38/51/137 34/46/138
f 76/97/27 75/96/42 34/46/138 14/21/139
f 77/98/28 76/97/27 14/21/139 10/16/140
f 78/99/7 77/98/28 10/16/140 30/41/141
f 53/71/8 78/99/7 30/41/141 5/5/142
